<?xml version="1.0" encoding="UTF-8" standalone="no"?>
<!-- Created with Inkscape (http://www.inkscape.org/) -->

<svg
   xmlns:dc="http://purl.org/dc/elements/1.1/"
   xmlns:cc="http://creativecommons.org/ns#"
   xmlns:rdf="http://www.w3.org/1999/02/22-rdf-syntax-ns#"
   xmlns:svg="http://www.w3.org/2000/svg"
   xmlns="http://www.w3.org/2000/svg"
   xmlns:xlink="http://www.w3.org/1999/xlink"
   xmlns:sodipodi="http://sodipodi.sourceforge.net/DTD/sodipodi-0.dtd"
   xmlns:inkscape="http://www.inkscape.org/namespaces/inkscape"
   version="1.1"
   id="svg815"
   width="120"
   height="120"
   viewBox="0 0 120 120"
   sodipodi:docname="nepriatel.svg"
   inkscape:export-filename="D:\macman\macman\Assets\docasna_grafika\nepriatel.png"
   inkscape:export-xdpi="94"
   inkscape:export-ydpi="94"
   inkscape:version="0.92.2 (5c3e80d, 2017-08-06)">
  <metadata
     id="metadata821">
    <rdf:RDF>
      <cc:Work
         rdf:about="">
        <dc:format>image/svg+xml</dc:format>
        <dc:type
           rdf:resource="http://purl.org/dc/dcmitype/StillImage" />
        <dc:title></dc:title>
      </cc:Work>
    </rdf:RDF>
  </metadata>
  <defs
     id="defs819">
    <linearGradient
       inkscape:collect="always"
       id="linearGradient2419">
      <stop
         style="stop-color:#000000;stop-opacity:1;"
         offset="0"
         id="stop2415" />
      <stop
         style="stop-color:#01ff03;stop-opacity:0"
         offset="1"
         id="stop2417" />
    </linearGradient>
    <linearGradient
       inkscape:collect="always"
       xlink:href="#linearGradient2419"
       id="linearGradient2429"
       x1="31.761145"
       y1="19.569307"
       x2="30.506477"
       y2="-21.689348"
       gradientUnits="userSpaceOnUse"
       gradientTransform="translate(0.73795317,13.776638)" />
    <linearGradient
       inkscape:collect="always"
       xlink:href="#linearGradient2419"
       id="linearGradient2429-9-7"
       x1="31.761145"
       y1="19.569307"
       x2="30.506477"
       y2="-21.689348"
       gradientUnits="userSpaceOnUse"
       gradientTransform="matrix(1.7352939,0,0,1.7352939,-21.888646,3.5972998)" />
    <linearGradient
       inkscape:collect="always"
       xlink:href="#linearGradient2419"
       id="linearGradient2694"
       gradientUnits="userSpaceOnUse"
       gradientTransform="matrix(4.2037786,0,0,4.2037786,-74.924012,-7.488279)"
       x1="31.761145"
       y1="19.569307"
       x2="30.506477"
       y2="-21.689348" />
    <linearGradient
       inkscape:collect="always"
       xlink:href="#linearGradient2419"
       id="linearGradient2694-2"
       gradientUnits="userSpaceOnUse"
       gradientTransform="matrix(2.8492277,0,0,2.8492277,-58.76537,10.99734)"
       x1="31.761145"
       y1="19.569307"
       x2="30.506477"
       y2="-21.689348" />
    <linearGradient
       inkscape:collect="always"
       xlink:href="#linearGradient2419"
       id="linearGradient2694-3"
       gradientUnits="userSpaceOnUse"
       gradientTransform="matrix(2.5316093,0,0,2.5316093,-0.19142183,20.37339)"
       x1="31.761145"
       y1="19.569307"
       x2="30.506477"
       y2="-21.689348" />
    <linearGradient
       inkscape:collect="always"
       xlink:href="#linearGradient2419"
       id="linearGradient2694-6"
       gradientUnits="userSpaceOnUse"
       gradientTransform="matrix(1.9617635,0,0,1.9617635,-26.750179,1.21694)"
       x1="31.761145"
       y1="19.569307"
       x2="30.506477"
       y2="-21.689348" />
    <linearGradient
       inkscape:collect="always"
       xlink:href="#linearGradient2419"
       id="linearGradient2694-9"
       gradientUnits="userSpaceOnUse"
       gradientTransform="matrix(2.2046485,0,0,2.2046485,10.555707,1.32539)"
       x1="31.761145"
       y1="19.569307"
       x2="30.506477"
       y2="-21.689348" />
  </defs>
  <sodipodi:namedview
     pagecolor="#ffffff"
     bordercolor="#666666"
     borderopacity="1"
     objecttolerance="10"
     gridtolerance="10"
     guidetolerance="10"
     inkscape:pageopacity="0"
     inkscape:pageshadow="2"
     inkscape:window-width="1920"
     inkscape:window-height="1001"
     id="namedview817"
     showgrid="false"
     inkscape:zoom="3.0149254"
     inkscape:cx="46.838292"
     inkscape:cy="99.25879"
     inkscape:window-x="-9"
     inkscape:window-y="-9"
     inkscape:window-maximized="1"
     inkscape:current-layer="svg815"
     showguides="false"
     inkscape:pagecheckerboard="true"
     units="mm" />
  <path
     style="opacity:1;fill:url(#linearGradient2694-2);fill-opacity:1;stroke:none;stroke-width:2.15374732;stroke-linecap:butt;stroke-linejoin:miter;stroke-miterlimit:4;stroke-dasharray:none;stroke-dashoffset:0;stroke-opacity:1;paint-order:normal"
     d="M 30.067553,17.1401 A 24.098549,24.098549 0 0 0 5.9707031,41.23695 24.098549,24.098549 0 0 0 30.067553,65.33753 24.098549,24.098549 0 0 0 35.196604,64.75688 32.552792,32.552792 0 0 1 23.036515,39.42057 32.552792,32.552792 0 0 1 31.83183,17.22571 24.098549,24.098549 0 0 0 30.067553,17.14011 Z"
     id="path925-5-0-6-8-8"
     inkscape:connector-curvature="0"
     inkscape:export-xdpi="193.65857"
     inkscape:export-ydpi="193.65857" />
  <path
     style="opacity:1;fill:#c5e27b;fill-opacity:1;stroke:none;stroke-width:2.14011598;stroke-linecap:butt;stroke-linejoin:miter;stroke-miterlimit:4;stroke-dasharray:none;stroke-dashoffset:0;stroke-opacity:1;paint-order:normal"
     d="M 30.305768,60.59186 V 85.5634 h 8.534768 12.956617 v 24.65144 H 61.59371 V 78.29415 h 12.64396 3.789095 V 65.15887 a 34.765121,34.765121 0 0 1 -3.789095,2.55708 v 8.36727 H 61.59371 V 72.2048 a 34.765121,34.765121 0 0 1 -5.054607,0.40198 34.765121,34.765121 0 0 1 -4.74195,-0.36476 v 9.21219 H 38.840536 V 67.71595 a 34.765121,34.765121 0 0 1 -8.534768,-7.12409 z"
     id="rect915"
     inkscape:connector-curvature="0"
     inkscape:export-xdpi="193.65857"
     inkscape:export-ydpi="193.65857" />
  <path
     style="opacity:1;fill:url(#linearGradient2694-6);fill-opacity:1;stroke:none;stroke-width:1.48290789;stroke-linecap:butt;stroke-linejoin:miter;stroke-miterlimit:4;stroke-dasharray:none;stroke-dashoffset:0;stroke-opacity:1;paint-order:normal"
     d="M 34.414963,5.44528 A 16.592448,16.592448 0 0 0 17.821857,22.03838 16.592448,16.592448 0 0 0 22.128324,33.16373 34.765121,34.765121 0 0 1 40.936075,6.78523 16.592448,16.592448 0 0 0 34.414963,5.44528 Z"
     id="path925-5-0-6-8-5"
     inkscape:connector-curvature="0"
     inkscape:export-xdpi="193.65857"
     inkscape:export-ydpi="193.65857" />
  <circle
     style="opacity:1;fill:url(#linearGradient2694);fill-opacity:1;stroke:none;stroke-width:3.17765927;stroke-linecap:butt;stroke-linejoin:miter;stroke-miterlimit:4;stroke-dasharray:none;stroke-dashoffset:0;stroke-opacity:1;paint-order:normal"
     id="path925-5-0-6-8"
     cx="56.142311"
     cy="37.130035"
     r="35.555237"
     inkscape:export-xdpi="193.65857"
     inkscape:export-ydpi="193.65857" />
  <path
     style="opacity:1;fill:url(#linearGradient2694-3);fill-opacity:1;stroke:none;stroke-width:1.91365695;stroke-linecap:butt;stroke-linejoin:miter;stroke-miterlimit:4;stroke-dasharray:none;stroke-dashoffset:0;stroke-opacity:1;paint-order:normal"
     d="M 85.772447,27.0446 A 32.552792,32.552792 0 0 1 88.459805,39.897 32.552792,32.552792 0 0 1 72.663224,67.76433 21.412154,21.412154 0 0 0 78.74141,68.65392 21.412154,21.412154 0 0 0 100.1509,47.24442 21.412154,21.412154 0 0 0 85.772447,27.0446 Z"
     id="path925-5-0-6-8-1"
     inkscape:connector-curvature="0"
     inkscape:export-xdpi="193.65857"
     inkscape:export-ydpi="193.65857" />
  <path
     style="opacity:1;fill:url(#linearGradient2694-9);fill-opacity:1;stroke:none;stroke-width:1.66650605;stroke-linecap:butt;stroke-linejoin:miter;stroke-miterlimit:4;stroke-dasharray:none;stroke-dashoffset:0;stroke-opacity:1;paint-order:normal"
     d="m 79.292277,6.07803 a 18.646749,18.646749 0 0 0 -6.8896,1.32879 34.765121,34.765121 0 0 1 18.268056,30.59191 34.765121,34.765121 0 0 1 -0.07823,1.54095 18.646749,18.646749 0 0 0 7.347423,-14.81394 18.646749,18.646749 0 0 0 -18.6477,-18.64771 z"
     id="path925-5-0-6-8-89"
     inkscape:connector-curvature="0"
     inkscape:export-xdpi="193.65857"
     inkscape:export-ydpi="193.65857" />
  <circle
     style="opacity:1;fill:#c50000;fill-opacity:1;stroke:none;stroke-width:5.42972469;stroke-linecap:butt;stroke-linejoin:miter;stroke-miterlimit:4;stroke-dasharray:none;stroke-dashoffset:0;stroke-opacity:1;paint-order:normal"
     id="path2970-5"
     cx="69.495277"
     cy="44.478134"
     r="7.7431402"
     inkscape:export-xdpi="193.65857"
     inkscape:export-ydpi="193.65857" />
  <circle
     style="opacity:1;fill:#c50000;fill-opacity:1;stroke:none;stroke-width:5.42972469;stroke-linecap:butt;stroke-linejoin:miter;stroke-miterlimit:4;stroke-dasharray:none;stroke-dashoffset:0;stroke-opacity:1;paint-order:normal"
     id="path2970-5-9"
     cx="43.263416"
     cy="44.320099"
     r="7.7431402"
     inkscape:export-xdpi="193.65857"
     inkscape:export-ydpi="193.65857" />
  <path
     style="fill:none;stroke:#000000;stroke-width:1.90571332px;stroke-linecap:butt;stroke-linejoin:miter;stroke-opacity:1"
     d="M 43.421442,39.26336 43.579463,49.6929"
     id="path3002"
     inkscape:connector-curvature="0"
     inkscape:export-xdpi="193.65857"
     inkscape:export-ydpi="193.65857" />
  <path
     style="fill:none;stroke:#000000;stroke-width:1.90571332px;stroke-linecap:butt;stroke-linejoin:miter;stroke-opacity:1"
     d="m 69.574291,39.57941 0.158022,10.42953"
     id="path3002-7"
     inkscape:connector-curvature="0"
     inkscape:export-xdpi="193.65857"
     inkscape:export-ydpi="193.65857" />
  <path
     style="fill:#ffffff;fill-opacity:1;stroke:none;stroke-width:1.90571332px;stroke-linecap:butt;stroke-linejoin:miter;stroke-opacity:1"
     d="m 39.470861,57.27801 4.582673,9.16535 4.898721,-8.21721 5.530814,8.69128 5.214766,-7.74314 5.688839,7.42709 6.953023,-8.21721"
     id="path3019"
     inkscape:connector-curvature="0"
     inkscape:export-xdpi="193.65857"
     inkscape:export-ydpi="193.65857" />
</svg>
